# xmcd
#
# Track frame offsets:
#	150
#	20155
#	34483
#	52510
#	69840
#	86085
#	104200
#	123873
#
# Disc length: 1987 seconds
#
# Revision: 1
# Processed by: cddbd v1.5.2PL0 Copyright (c) Steve Scherf et al.
# Submitted via: audiograbber 1.83.01
#
DISCID=6707c108
DTITLE=Curtis Mayfield - Give, Get, Take And Have
DYEAR=1976
DGENRE=Soul
TTITLE0=In Your Arms Again (Shake It)
TTITLE1=This Love Is Sweet
TTITLE2=P.S. I Love You
TTITLE3=Party Night
TTITLE4=Get A Little Bit (Give, Get, Take And Have)
TTITLE5=Soul Music
TTITLE6=Only You Babe
TTITLE7=Mr. Welfare Man
EXTD=
EXTT0=
EXTT1=
EXTT2=
EXTT3=
EXTT4=
EXTT5=
EXTT6=
EXTT7=
PLAYORDER=
